<svg id="jumbotron-img" xmlns="http://www.w3.org/2000/svg" viewBox="0 0 2882.59 1637.4">
  <defs>
    <style>
      .cls-1 {
        fill: #ebf3fa;
      }

      .cls-2 {
        fill: #dfebfd;
      }

      .cls-3 {
        fill: #afcdfb;
      }

      .cls-4 {
        fill: #cde0fb;
      }

      .cls-5 {
        fill: #6bb7bf;
      }

      .cls-6 {
        fill: #86d1cd;
      }

      .cls-7 {
        fill: #f99746;
      }

      .cls-8 {
        fill: #5685d8;
      }

      .cls-9 {
        fill: #739af0;
      }

      .cls-10 {
        fill: #f1a34f;
      }

      .cls-11 {
        fill: #ffa412;
      }

      .cls-12 {
        fill: #ffb93e;
      }

      .cls-13 {
        fill: #fa9712;
      }

      .cls-14 {
        fill: #ed7d2b;
      }

      .cls-15 {
        fill: #ffc261;
      }

      .cls-16 {
        fill: #f69b34;
      }

      .cls-17 {
        fill: #ffa15a;
      }

      .cls-18 {
        fill: #f78639;
      }

      .cls-19 {
        fill: #ffbe55;
      }

      .cls-20 {
        fill: #233862;
      }

      .cls-21 {
        fill: #ffb27d;
      }

      .cls-22 {
        fill: #ed975d;
      }

      .cls-23 {
        fill: #fff;
      }

      .cls-24 {
        fill: #2b478b;
      }

      .cls-25 {
        fill: #b64c41;
      }

      .cls-26 {
        fill: #4a75cb;
      }

      .cls-27 {
        fill: #88b3ff;
      }

      .cls-28 {
        fill: #72a9f7;
      }

      .cls-29 {
        fill: #3969b7;
      }

      .cls-30 {
        fill: #2e3552;
      }
    </style>
  </defs>
  <g>
    <path class="cls-1" d="M339.85,1795.38s-320.966-344.614-54.281-717.709c236.621-331.035,512.5-308.406,714.9-174.07,86.207,57.215,334.753,7.051,546.3-329.789,288.488-459.358,1288.491-180.756,1106.159,525.979-88.236,342.009,268.537,354.44,86.747,696.313Z" transform="translate(-143.021 -162.103)"/>
    <path class="cls-2" d="M2942.658,1337.952c-22.6-83.448-163.419-57.371-163.419-57.371s-95.618,146.034-123.433,149.511,57.37-140.819,57.37-140.819c-53.893-5.214-191.235,60.848-191.235,60.848s8.693,170.373-19.124,166.9,0-151.25,0-151.25c-52.155,15.646-100.833,76.494-100.833,76.494-60.847,99.094,69.54,172.111,69.54,172.111s1.739,59.108-34.769,126.91l0,0s-8.239,12.518-16.614,33.8h14.218q1.743-5.718,3.859-11.036a.088.088,0,0,1,.027-.065l.063-.153c.973-2.2,2.374-5.323,4.118-9.132l.008-.013c0-.01.008-.01.008-.019,4.344-8.5,7.279-14.786,9.135-19.321a.184.184,0,0,0,.015-.043c13.016-26.695,31.767-61.476,44.273-68.771a27.555,27.555,0,0,1-3.043-6.521q1.456,3.119,3.043,6.521c24.34,52.156,146.034,60.848,213.836,46.94s38.246-33.033,1.739-64.07-113-22.855-135.6-35.025,10.431-24.339,55.632-20.861,67.8,48.678,140.818,55.632,128.649-130.388,128.649-130.388c-50.416,15.646-140.819-12.17-144.3-29.555s130.386-15.646,151.249-20.861S2965.258,1421.4,2942.658,1337.952Z" transform="translate(-143.021 -162.103)"/>
    <path class="cls-3" d="M1023.549,1360.72s6.215,49.573-3.081,50.16-2.943-55.738-2.943-55.738-44.2-24.707-62.181-24.075c0,0,25.312,49.589,16.158,47.869s-37.889-52.1-37.889-52.1-46.17-11.517-55.365,15.7,2.063,41.794,8.876,43.949,51.242,4.3,49.734,10-32.054,13.079-48.455,6.863c0,0,15.653,46.68,40.009,45.861s32.773-15.35,47.834-15.582,25.767,4.476,18.024,8.053-32.944-.7-45.684,8.853-22.931,15.289-.729,21.283,62.738,5.589,71.872-11.212l1.142-2.1a9.15,9.15,0,0,1-1.142,2.1c4,2.675,9.511,14.6,13.285,23.714.522,1.544,1.367,3.69,2.64,6.609h0c.507,1.315.912,2.391,1.191,3.142,6.708,20.319.406,54.307.406,54.307l4.724,1.586c12.765-33.861-4.166-63.362-4.166-63.362-10.726-23.229-8.946-42.8-8.946-42.8s44.728-21.56,26.568-55.662C1055.431,1388.142,1040.526,1366.971,1023.549,1360.72Z" transform="translate(-143.021 -162.103)"/>
    <path class="cls-4" d="M689.067,1581.973c-4-61.146,96.409-75.993,96.409-75.993s97.647,75.97,117.1,71.915-70.8-81.254-70.8-81.254c34.941-15.871,142.205-3.108,142.205-3.108s33.29,116.24,51.144,107.523-34.728-101.421-34.728-101.421c38.565-1.484,85.177,28.141,85.177,28.141,63.555,52.478-7.112,131.377-7.112,131.377s12.406,40.035,52.454,77.117h0a142.62,142.62,0,0,1,18.9,18.847l-9.535,3.265q-2.481-3.435-5.121-6.515a.06.06,0,0,0-.034-.036c-.025-.03-.051-.059-.077-.089-1.157-1.25-2.814-3.024-4.858-5.178l-.008-.007c0-.007-.008,0-.01-.011-4.865-4.7-8.276-8.243-10.562-10.858a.115.115,0,0,1-.019-.026c-14.858-14.911-35.418-33.929-45.479-35.949a19.526,19.526,0,0,0,.544-5.071c-.174,1.617-.354,3.3-.544,5.071-4.345,40.561-83.952,74.332-132.611,80.574s-33.23-13.368-15.876-42.563,70.527-41.272,82.887-54.622-12.583-13.925-42.094-1.215-34.288,48.209-81.653,69.636-116.2-57.893-116.2-57.893c37.4-1.084,91.632-40.492,89.972-52.948s-91.024,19.445-106.211,20.738S693.072,1643.118,689.067,1581.973Z" transform="translate(-143.021 -162.103)"/>
    <g>
      <path class="cls-5" d="M2569.627,485.3s-10.7-8.083-13.467-20.158c-2.05-8.962,3.094-20.21,3.514-20.719l-14.342-2.857s-4.248,19.032,2.944,31.687c2.2,3.878,8.6,9.216,12.711,11.212A12.391,12.391,0,0,0,2569.627,485.3Z" transform="translate(-143.021 -162.103)"/>
      <path class="cls-6" d="M2594.549,476.576l13.047,14.93s-36.881,9.794-57.964-16.3C2549.632,475.208,2580.682,485.708,2594.549,476.576Z" transform="translate(-143.021 -162.103)"/>
    </g>
    <g>
      <path class="cls-7" d="M1922.037,289.18s13.315-22.093,36.8-8.575l12.865-14s-13.438-8.9-41.862,10.454C1911.241,289.723,1922.037,289.18,1922.037,289.18Z" transform="translate(-143.021 -162.103)"/>
      <path class="cls-7" d="M1908.886,310.846s-4.473-24.084,35.176-41.852c0,0-14.224,8.066-17.192,32.552Z" transform="translate(-143.021 -162.103)"/>
    </g>
    <g>
      <path class="cls-8" d="M1100.83,1006.23s-21.8-8.588-13.238-31.662l-14.482-9.409s-5.941,13.381,15.686,35.915C1102.946,1015.818,1100.83,1006.23,1100.83,1006.23Z" transform="translate(-143.021 -162.103)"/>
      <path class="cls-9" d="M1122.22,1014.737s-20.895,7.643-42.8-25.184c0,0,9.373,11.521,31.752,10.482Z" transform="translate(-143.021 -162.103)"/>
    </g>
    <path class="cls-10" d="M1163.644,703.961s12.031-7.6,13.3-16.78c0,0,11.715.633,14.249,4.432,0,0-5.383,15.2-11.715,18.048C1179.475,709.661,1165.227,710.61,1163.644,703.961Z" transform="translate(-143.021 -162.103)"/>
    <path class="cls-10" d="M373.936,1253.173s-12.835-8.107-14.186-17.9c0,0-12.5.675-15.2,4.728,0,0,5.742,16.213,12.5,19.252C357.048,1259.252,372.248,1260.266,373.936,1253.173Z" transform="translate(-143.021 -162.103)"/>
    <path class="cls-6" d="M1812.1,537.526s-17.928-11.322-19.815-25c0,0-17.455.943-21.229,6.6,0,0,8.02,22.645,17.455,26.891C1788.511,546.018,1809.74,547.433,1812.1,537.526Z" transform="translate(-143.021 -162.103)"/>
    <g>
      <path class="cls-4" d="M2912.78,484.878,3024.225,833.8a29.481,29.481,0,0,1-19.054,36.938l-612.1,195.5a29.482,29.482,0,0,1-36.939-19.054L2244.688,698.265a29.48,29.48,0,0,1,19.053-36.938l612.1-195.5A29.481,29.481,0,0,1,2912.78,484.878Z" transform="translate(-143.021 -162.103)"/>
      <g>
        <path class="cls-3" d="M2560.767,928.412l-163.138,52.105a13.213,13.213,0,0,1-16.558-8.541l-.5-1.568a13.212,13.212,0,0,1,8.541-16.557l163.137-52.106a13.213,13.213,0,0,1,16.558,8.542l.5,1.567A13.213,13.213,0,0,1,2560.767,928.412Z" transform="translate(-143.021 -162.103)"/>
        <path class="cls-3" d="M2775.748,859.748l-163.137,52.1a13.213,13.213,0,0,1-16.558-8.542l-.5-1.567a13.212,13.212,0,0,1,8.541-16.558l163.136-52.105a13.213,13.213,0,0,1,16.558,8.542l.5,1.567A13.213,13.213,0,0,1,2775.748,859.748Z" transform="translate(-143.021 -162.103)"/>
        <g>
          <path class="cls-3" d="M2581.576,741.87q2.85,8.921,1.561,15.612a14.434,14.434,0,0,1-24.173,7.721q-4.927-4.707-7.778-13.627t-1.6-15.536a14.536,14.536,0,0,1,24.288-7.758Q2578.726,732.951,2581.576,741.87Zm-7.492,2.361a31.577,31.577,0,0,0-4.268-9q-3.781-5.084-8.212-3.668-4.548,1.452-4.641,7.709a30.512,30.512,0,0,0,1.7,9.88q4.861,15.225,12.632,12.742,4.49-1.434,4.546-7.806A31.4,31.4,0,0,0,2574.084,744.231Z" transform="translate(-143.021 -162.103)"/>
          <path class="cls-3" d="M2615.072,731.171q2.851,8.922,1.562,15.613a14.434,14.434,0,0,1-24.173,7.72q-4.929-4.706-7.778-13.627t-1.6-15.536a14.538,14.538,0,0,1,24.289-7.758Q2612.222,722.251,2615.072,731.171Zm-7.492,2.361a31.543,31.543,0,0,0-4.268-8.994q-3.78-5.085-8.211-3.669-4.548,1.452-4.642,7.71a30.543,30.543,0,0,0,1.7,9.88q4.863,15.223,12.632,12.742,4.49-1.434,4.547-7.807A31.44,31.44,0,0,0,2607.58,733.532Z" transform="translate(-143.021 -162.103)"/>
          <path class="cls-3" d="M2665.835,714.958q2.849,8.922,1.562,15.612a14.436,14.436,0,0,1-24.174,7.721q-4.927-4.706-7.778-13.627t-1.6-15.536a14.537,14.537,0,0,1,24.289-7.758Q2662.985,706.038,2665.835,714.958Zm-7.491,2.361a31.631,31.631,0,0,0-4.269-9q-3.78-5.084-8.212-3.668-4.546,1.452-4.641,7.709a30.494,30.494,0,0,0,1.7,9.881q4.861,15.223,12.632,12.741,4.49-1.434,4.547-7.806A31.493,31.493,0,0,0,2658.344,717.319Z" transform="translate(-143.021 -162.103)"/>
          <path class="cls-3" d="M2699.332,704.259q2.849,8.922,1.561,15.613a14.434,14.434,0,0,1-24.173,7.72q-4.929-4.705-7.779-13.627t-1.6-15.536a14.535,14.535,0,0,1,24.288-7.757Q2696.482,695.34,2699.332,704.259Zm-7.492,2.361a31.6,31.6,0,0,0-4.269-8.994q-3.78-5.085-8.212-3.669-4.546,1.452-4.64,7.71a30.512,30.512,0,0,0,1.7,9.88q4.861,15.224,12.632,12.742,4.49-1.434,4.547-7.807A31.464,31.464,0,0,0,2691.84,706.62Z" transform="translate(-143.021 -162.103)"/>
          <path class="cls-3" d="M2732.828,693.56q2.85,8.922,1.561,15.613a14.434,14.434,0,0,1-24.172,7.721q-4.931-4.707-7.778-13.627t-1.6-15.537a14.537,14.537,0,0,1,24.288-7.757Q2729.978,684.641,2732.828,693.56Zm-7.492,2.361a31.57,31.57,0,0,0-4.268-8.994q-3.782-5.084-8.212-3.669-4.548,1.453-4.641,7.71a30.512,30.512,0,0,0,1.7,9.88q4.861,15.225,12.632,12.742,4.489-1.434,4.546-7.807A31.44,31.44,0,0,0,2725.336,695.921Z" transform="translate(-143.021 -162.103)"/>
          <path class="cls-3" d="M2766.324,682.862q2.851,8.922,1.562,15.612a14.434,14.434,0,0,1-24.173,7.721q-4.929-4.706-7.778-13.627t-1.6-15.536a14.537,14.537,0,0,1,24.289-7.758Q2763.474,673.942,2766.324,682.862Zm-7.491,2.361a31.584,31.584,0,0,0-4.268-8.994q-3.782-5.085-8.212-3.669-4.548,1.452-4.642,7.71a30.537,30.537,0,0,0,1.7,9.879q4.863,15.225,12.633,12.742,4.488-1.434,4.546-7.807A31.458,31.458,0,0,0,2758.833,685.223Z" transform="translate(-143.021 -162.103)"/>
          <path class="cls-3" d="M2817.087,666.648q2.848,8.922,1.561,15.613a14.434,14.434,0,0,1-24.172,7.721q-4.929-4.707-7.779-13.627t-1.6-15.536a14.537,14.537,0,0,1,24.289-7.758Q2814.237,657.729,2817.087,666.648Zm-7.491,2.362a31.658,31.658,0,0,0-4.269-9q-3.78-5.084-8.212-3.668-4.546,1.452-4.641,7.709a30.484,30.484,0,0,0,1.7,9.88q4.861,15.225,12.632,12.742,4.489-1.434,4.547-7.807A31.516,31.516,0,0,0,2809.6,669.01Z" transform="translate(-143.021 -162.103)"/>
          <path class="cls-3" d="M2850.584,655.95q2.849,8.922,1.561,15.612a14.434,14.434,0,0,1-24.173,7.721q-4.931-4.706-7.779-13.627t-1.6-15.536a14.536,14.536,0,0,1,24.288-7.758Q2847.735,647.032,2850.584,655.95Zm-7.492,2.361a31.6,31.6,0,0,0-4.269-9q-3.78-5.083-8.212-3.668-4.546,1.452-4.64,7.709a30.513,30.513,0,0,0,1.7,9.881q4.863,15.223,12.633,12.742,4.488-1.436,4.546-7.807A31.459,31.459,0,0,0,2843.092,658.311Z" transform="translate(-143.021 -162.103)"/>
          <path class="cls-3" d="M2884.08,645.251q2.849,8.922,1.561,15.613a14.433,14.433,0,0,1-24.172,7.72q-4.931-4.705-7.779-13.626t-1.6-15.537a14.536,14.536,0,0,1,24.288-7.757Q2881.23,636.332,2884.08,645.251Zm-7.492,2.361a31.6,31.6,0,0,0-4.268-8.994q-3.78-5.085-8.212-3.669-4.548,1.452-4.641,7.71a30.539,30.539,0,0,0,1.7,9.88q4.863,15.225,12.633,12.742,4.49-1.434,4.547-7.807A31.473,31.473,0,0,0,2876.588,647.612Z" transform="translate(-143.021 -162.103)"/>
          <path class="cls-3" d="M2917.577,634.552q2.85,8.923,1.562,15.613a14.436,14.436,0,0,1-24.174,7.721q-4.928-4.707-7.777-13.627t-1.6-15.536a14.536,14.536,0,0,1,24.288-7.758Q2914.728,625.633,2917.577,634.552Zm-7.492,2.362a31.537,31.537,0,0,0-4.269-9q-3.78-5.085-8.211-3.668-4.548,1.452-4.642,7.709a30.566,30.566,0,0,0,1.7,9.88q4.863,15.225,12.633,12.742,4.49-1.434,4.547-7.807A31.492,31.492,0,0,0,2910.085,636.914Z" transform="translate(-143.021 -162.103)"/>
        </g>
        <path class="cls-3" d="M2469.41,654.414l-159.65,50.991a13.211,13.211,0,0,1-16.558-8.541h0a13.215,13.215,0,0,1,8.541-16.558l159.651-50.991a13.212,13.212,0,0,1,16.557,8.541h0A13.215,13.215,0,0,1,2469.41,654.414Z" transform="translate(-143.021 -162.103)"/>
        <g>
          <path class="cls-3" d="M2857.182,560a20.168,20.168,0,0,0-8.086-10.7,2.16,2.16,0,0,0-3.122.827l-.505,1a2.137,2.137,0,0,0,.7,2.739,14.8,14.8,0,0,1,5.6,17.519,2.138,2.138,0,0,0,1.015,2.639l.991.522a2.161,2.161,0,0,0,3.023-1.135A20.169,20.169,0,0,0,2857.182,560Z" transform="translate(-143.021 -162.103)"/>
          <path class="cls-3" d="M2867.525,556.7a30.932,30.932,0,0,0-13.644-17.194,2.146,2.146,0,0,0-3,.9l-.285.567a2.159,2.159,0,0,0,.834,2.824,26.1,26.1,0,0,1,10.462,32.756,2.162,2.162,0,0,0,.957,2.786l.561.295a2.146,2.146,0,0,0,2.966-1.009A30.935,30.935,0,0,0,2867.525,556.7Z" transform="translate(-143.021 -162.103)"/>
          <path class="cls-3" d="M2876.587,553.8a40.462,40.462,0,0,0-18.427-22.827,2.152,2.152,0,0,0-2.986.907h0a2.144,2.144,0,0,0,.848,2.829A36.235,36.235,0,0,1,2870.9,581.28a2.147,2.147,0,0,0,.948,2.8h0a2.154,2.154,0,0,0,2.961-.993A40.478,40.478,0,0,0,2876.587,553.8Z" transform="translate(-143.021 -162.103)"/>
          <path class="cls-3" d="M2886.408,550.667a50.721,50.721,0,0,0-23.605-28.9,2.162,2.162,0,0,0-2.987.91l-.494.98a2.147,2.147,0,0,0,.863,2.838,45.462,45.462,0,0,1,18.864,59.061,2.147,2.147,0,0,0,.941,2.813l.971.512a2.163,2.163,0,0,0,2.962-.99A50.727,50.727,0,0,0,2886.408,550.667Z" transform="translate(-143.021 -162.103)"/>
        </g>
      </g>
    </g>
    <g>
      <rect class="cls-11" x="1982.98" y="625.743" width="348.493" height="1003.786"/>
      <rect class="cls-12" x="1062.307" y="625.743" width="920.672" height="1003.786"/>
      <rect class="cls-11" x="1630.537" y="853.673" width="70.256" height="920.672" transform="translate(2836.652 -513.759) rotate(90)"/>
      <rect class="cls-13" x="2265.12" y="1139.762" width="70.256" height="348.493" transform="translate(3471.235 -1148.342) rotate(90)"/>
      <path class="cls-7" d="M1840.1,798.6s208-135.159,349.386-91.73l-29.168,27.243,13.144,45.78S2016.244,728.69,1835.8,806.3Z" transform="translate(-143.021 -162.103)"/>
      <path class="cls-7" d="M1828.472,767.989s-36.7-4.435-91.4-11.959c-145.212-19.975-417.2-61.764-466.024-100.432-76.713-60.746,105.065-318.743,183.748-354.553C1533.482,265.268,1828.472,767.989,1828.472,767.989Z" transform="translate(-143.021 -162.103)"/>
      <path class="cls-7" d="M2403.939,446.721c13.112,63.916-580.871,340.039-580.871,340.039s10.809-29.216,28.386-74.978l.051-.077c64.218-167.111,218.922-554.914,269.759-549.547,5.105.529,11.081,2.355,17.752,5.28C2217.1,201.793,2391.863,387.858,2403.939,446.721Z" transform="translate(-143.021 -162.103)"/>
      <path class="cls-14" d="M2134.006,224.271c-36.273,63.013-278.706,480.92-282.5,487.434,64.218-167.111,218.922-554.914,269.759-549.547,0,0,10.069-.288,17.752,5.28C2148.281,174.19,2154.033,189.476,2134.006,224.271Z" transform="translate(-143.021 -162.103)"/>
      <path class="cls-14" d="M1737.172,756.03h-.1c-145.212-19.975-417.2-61.764-466.024-100.432-22.044-62.093,35.153-67.153,76.778-71.522C1389.421,579.707,1737.172,756.03,1737.172,756.03Z" transform="translate(-143.021 -162.103)"/>
      <path class="cls-14" d="M1717.69,787.767s33.3-75.749,98.833-79.944c68.446-4.38,107.322,79.944,107.322,79.944Z" transform="translate(-143.021 -162.103)"/>
      <rect class="cls-15" x="1034.395" y="625.743" width="963.354" height="138.061"/>
      <rect class="cls-13" x="1997.749" y="625.743" width="363.099" height="138.061"/>
      <path class="cls-7" d="M1751.434,776.283s-188.682-59.768-316-20.253c-146.756,45.547-138.06,226.634-138.06,226.634l34.515-14.189,46.6,21.859s7.861-191.751,127.513-218.595C1609.453,748.526,1751.434,776.283,1751.434,776.283Z" transform="translate(-143.021 -162.103)"/>
      <rect class="cls-11" x="1441.36" y="625.743" width="70.256" height="1003.685"/>
    </g>
    <g>
      <rect class="cls-14" x="974.526" y="492.24" width="68.028" height="195.944" transform="translate(-278.302 188.991) rotate(-18.529)"/>
      <rect class="cls-7" x="801.227" y="531.606" width="179.72" height="195.944" transform="translate(-296.902 153.712) rotate(-18.529)"/>
      <rect class="cls-12" x="885.736" y="544.211" width="13.714" height="179.72" transform="matrix(0.318, 0.948, -0.948, 0.318, 1067.106, -575.858)"/>
      <rect class="cls-16" x="1003.188" y="560.691" width="13.714" height="68.028" transform="matrix(0.318, 0.948, -0.948, 0.318, 1109.908, -714.077)"/>
      <path class="cls-12" d="M898.1,520.721s44.295-41.221,83.73-44.416l-5.641,7.3,6.544,7.363s-44.053,3.018-85.212,31.505Z" transform="translate(-143.021 -162.103)"/>
      <g>
        <path class="cls-12" d="M888.854,522.91s-7.067,1.456-17.658,3.457c-28.116,5.311-81.051,14.449-92.485,10.321-17.967-6.485-.327-65.513,12.015-77.022S888.854,522.91,888.854,522.91Z" transform="translate(-143.021 -162.103)"/>
        <g>
          <path class="cls-12" d="M975.435,427.749c6.392,11.017-86.416,98.971-86.416,98.971s.188-6.078.6-15.638l0-.018c1.519-34.914,6.1-116.288,15.837-118.448a12.088,12.088,0,0,1,3.614-.124C925.659,394.007,969.549,417.6,975.435,427.749Z" transform="translate(-143.021 -162.103)"/>
          <path class="cls-16" d="M911.675,403.322c-2.8,13.913-21.751,106.3-22.049,107.742,1.519-34.914,6.1-116.288,15.837-118.448a6.314,6.314,0,0,1,3.614-.124C911.21,393.167,913.224,395.64,911.675,403.322Z" transform="translate(-143.021 -162.103)"/>
        </g>
        <path class="cls-16" d="M871.214,526.36l-.018.007c-28.116,5.311-81.051,14.449-92.485,10.321-7.932-10.126,2.341-14.61,9.774-18S871.214,526.36,871.214,526.36Z" transform="translate(-143.021 -162.103)"/>
        <path class="cls-16" d="M869.577,533.443s1.464-16.086,13.334-20.927c12.4-5.057,24.822,8.138,24.822,8.138Z" transform="translate(-143.021 -162.103)"/>
      </g>
      <rect class="cls-17" x="768.993" y="536.394" width="188.052" height="26.95" transform="translate(-273.027 140.662) rotate(-18.529)"/>
      <rect class="cls-18" x="950.333" y="495.251" width="70.879" height="26.95" transform="translate(-253.588 177.534) rotate(-18.529)"/>
      <path class="cls-19" d="M875.11,529.225s-38.63.642-59.744,15.854c-24.338,17.534-11.494,50.511-11.494,50.511l5.508-4.767,9.98,1.155S808.92,556,829.4,543.609C847.109,532.9,875.11,529.225,875.11,529.225Z" transform="translate(-143.021 -162.103)"/>
      <rect class="cls-12" x="875.956" y="534.426" width="13.714" height="197.634" transform="translate(-298.498 151.281) rotate(-18.53)"/>
    </g>
    <g>
      <path class="cls-20" d="M2133.281,894.334s-25.507,15.025-9.855,44.139c0,0-22.331-4.088-27.154-10.755a17.539,17.539,0,0,0,1.389,4.177s-20.53-4.653-27.246-13.219,26.225-111.192,79.592-84.615c0,0,48.8,9.055,29.686,63.234s-1.049,58.964-1.049,58.964-5.68,1.146-8.1.5c0,0-3.187-2.291-3.368-4.436,0,0-.115,3.264.535,4.484,0,0-19.988-3.315-27.775-13.253S2127.479,905.02,2133.281,894.334Z" transform="translate(-143.021 -162.103)"/>
      <path class="cls-21" d="M2096.452,981.558c-.034.011-.056.023-.091.034C2096.2,981.569,2096.236,981.558,2096.452,981.558Z" transform="translate(-143.021 -162.103)"/>
      <path class="cls-21" d="M2158.448,963.71c.748,6.717,1.646,12.742,2.042,15.612.9,6.434-60.146,2.247-64.038,2.236,2.712-1.18,10.994-27.447,13.615-37.465,3.177-12.152,5.673-25.279,5.673-25.279l43.105,2.722,2.564.159a149.858,149.858,0,0,0-3.506,16.577c-.1.692-.2,1.395-.295,2.077C2156.825,946.067,2157.518,955.416,2158.448,963.71Z" transform="translate(-143.021 -162.103)"/>
      <path class="cls-20" d="M2109.8,914.467s-6.988-22.162-5.574-39.156c1.008-12.133,18.282-53.522,59.807-35.91a60.674,60.674,0,0,1,21.886,15.633c7.7,8.81,17.6,26.055-7.442,59.533l-7.281,11.622Z" transform="translate(-143.021 -162.103)"/>
      <path class="cls-22" d="M2158.448,963.71c-30.153-8.833-42.947-43.662-42.947-43.662,12.753.374,29.365,9.226,42.4,18.224-.1.692-.2,1.395-.295,2.077C2156.825,946.067,2157.518,955.416,2158.448,963.71Z" transform="translate(-143.021 -162.103)"/>
      <path class="cls-21" d="M2160.58,951.474s-54.475-13.464-45.567-47.259,7.875-58.292,43.032-51.125,38.488,21.837,38.259,33.84S2174.979,954.105,2160.58,951.474Z" transform="translate(-143.021 -162.103)"/>
      <path class="cls-20" d="M2182.967,858.8s-25.344,35.7-49.686,35.532-32.611-8.9-32.611-8.9,21.158-9.259,31.2-32.54C2131.873,852.9,2176.759,836.972,2182.967,858.8Z" transform="translate(-143.021 -162.103)"/>
      <path class="cls-20" d="M2178.434,861.046s8.747,11.785,9.173,21.1-3.046,27.352,2.276,28.116c0,0,18.32-23.979,9.781-42.547C2190.609,848.028,2178.434,861.046,2178.434,861.046Z" transform="translate(-143.021 -162.103)"/>
      <path class="cls-20" d="M2180.14,862.93s-21.57,38.706-53.845,44.386c0,0,35.508-17.888,45.2-44.641S2180.14,862.93,2180.14,862.93Z" transform="translate(-143.021 -162.103)"/>
      <path class="cls-23" d="M2152.078,929.809s.68,5.145,3.962,6.361,11.994,3.421,12.877,2.875a43.64,43.64,0,0,0,4.148-4.557S2159.336,929.223,2152.078,929.809Z" transform="translate(-143.021 -162.103)"/>
      <path class="cls-21" d="M2131.739,1446.763q-1.038,4.34-2.065,8.589c-4.108,17.065-7.931,32.892-10.336,46.133-3.132,17.236-3.869,30.057.238,35.446,16.917,22.182,0,198.207,0,198.207l-19.255,19.833s-33.47-173.789-42.548-201.021c-4.13-12.379-10.143-65.252-15.454-119.225q-.408-4.052-.794-8.1c-.919-9.439-1.8-18.846-2.655-28.024-4.765-51.07-8.328-94.8-8.328-94.8s35.5-24.962,67.76-27.741c19-1.657,36.875,4.39,45.7,27.741C2156.859,1337.772,2143.834,1396.432,2131.739,1446.763Z" transform="translate(-143.021 -162.103)"/>
      <path class="cls-22" d="M2131.739,1446.763c-26.38-19.05-63.493-52.953-76.962-108.527-2.575-27.628,19.209-53.883,43.525-62.176,19-1.657,36.875,4.39,45.7,27.741C2156.859,1337.772,2143.834,1396.432,2131.739,1446.763Z" transform="translate(-143.021 -162.103)"/>
      <path class="cls-21" d="M2227.938,1111.1l129.64,33.486v15.137s-129.011-1.513-137.331-15.884S2227.938,1111.1,2227.938,1111.1Z" transform="translate(-143.021 -162.103)"/>
      <path class="cls-21" d="M2357.573,1610.046l-6.058,25.019s-175.368-90.578-198.048-107.971c-9.112-6.99-21.15-44.943-32.3-87.876-16.61-63.993-31.247-139.048-31.247-139.048s24.587-94.548,90.394-36.682c39.383,34.628,33.256,101.356,28.945,153.253-2.87,34.821-4.936,62.971,8.124,70.267,25.473,14.217,100.221,79.707,123.878,124.763Z" transform="translate(-143.021 -162.103)"/>
      <path class="cls-21" d="M2060.09,1189.764c-45.8-11.655-96.145-82.707-96.145-82.707l12.9-11.186c13.351,15.74,68.864,42.851,68.864,42.851-.3-14.406.079-27.544.988-39.5,6.16-81.277,36.8-108.355,45.163-114.3a19.9,19.9,0,0,1,2.124-1.366s.032.59.079,1.709c.123,2.414.344,7.28.571,13.958C2096.33,1048.969,2098.36,1199.514,2060.09,1189.764Z" transform="translate(-143.021 -162.103)"/>
      <path class="cls-23" d="M2096.357,1092.223c-2.373,57.981-11.047,115.395-36.291,111.7-30.942-4.516-39-33.4-40.646-54.866a123.236,123.236,0,0,1,.451-23.855s15.229-.07,17.694-2.34c11.7-10.8,8.223-116.761,14.013-127.763s43.356-18.065,43.356-18.065S2098.721,1034.912,2096.357,1092.223Z" transform="translate(-143.021 -162.103)"/>
      <path class="cls-2" d="M2096.357,1092.223c-2.373,57.981-11.047,115.395-36.291,111.7-30.942-4.516-39-33.4-40.646-54.866,7.6-.382,20.972-2.236,26.286-10.341,7.609-11.6,31.348-86.3,31.348-86.3S2086.388,1069.19,2096.357,1092.223Z" transform="translate(-143.021 -162.103)"/>
      <path class="cls-23" d="M2291.557,1111.1c8.386,11.911,3.767,35.007-13.823,53.6-10.924,11.547-25.718,18.377-49.8,14.828-10.5-1.547-39.823-18.1-42.907-38.293-.552-3.66-.862-5.8-.862-5.8s-13.351,13.37-13.85,15.894c-.225,1.136-1.376,11.236-1.557,12.618-.208,1.67.98,7.8.98,7.8s-63.786,27.9-116.517-3.871c0,0-15.036-128.847-4.239-150.286,5.368-10.652,35.467-31.4,45.948-40.56,2.352-2.062,4.747-8.275,4.1-12.277-.531-3.381,3.36-9.082,6.619-8.044,6.3,2.018,24.137,10.843,36.686,7.476,6.25-1.661,14.178-8.886,20.236-7.232,7.406,2.022-.417,19.845,3.781,20.077,5.783.285,37.024,6.534,39.645,11.573.912,1.755,9.886,25.528,21.139,56.988a.33.33,0,0,1,.017.082C2248.274,1104.693,2279.247,1093.619,2291.557,1111.1Z" transform="translate(-143.021 -162.103)"/>
      <path class="cls-2" d="M2184.169,1135.436s-1.554-49.15-5.524-48.55-61.27,55.753-47.655,77.815S2184.169,1135.436,2184.169,1135.436Z" transform="translate(-143.021 -162.103)"/>
      <path class="cls-24" d="M2227.938,1336.966s-22.084,6.821-54.616,11.322c-40.282,5.57-96.593,7.577-146.881-11.322,0,0-4.144-74.832,7.772-113.841s17.486-57.682,17.486-57.682,47.741,11.971,96.225,2.688a157.262,157.262,0,0,0,20.336-5.256s29.909,63.5,38.134,90.71S2227.938,1336.966,2227.938,1336.966Z" transform="translate(-143.021 -162.103)"/>
      <path class="cls-20" d="M2227.938,1336.966s-22.084,6.821-54.616,11.322c-59.657-33.827-30.568-176.174-30.568-176.174q2.655-2.152,5.17-3.983a157.262,157.262,0,0,0,20.336-5.256s29.909,63.5,38.134,90.71S2227.938,1336.966,2227.938,1336.966Z" transform="translate(-143.021 -162.103)"/>
      <path class="cls-25" d="M2102.4,1179.529c-35.366,0-49.943-12.171-51.022-13l-2.287-16.655c.339.251,47.793,28.745,121.231,1.456l-1.557,12.618C2140.52,1174.443,2120.766,1179.529,2102.4,1179.529Z" transform="translate(-143.021 -162.103)"/>
      <path class="cls-21" d="M2357.578,1144.586s23.784-11.716,33.24-12.85,25.34-1.513,25.34,0-17.019,12.085-21.558,12.85-13.238,7.195-10.59,7.951,16.641-2.458,16.83,0-8.51,3.972-10.022,5.862-6.808,4.161-15.318,3.026-17.922-1.7-17.922-1.7Z" transform="translate(-143.021 -162.103)"/>
      <path class="cls-21" d="M1976.817,1095.828l-12.927,11.278s-22.968-16.778-24.068-23.654v-.688c0-7.153,14.578-22.006,26.681-22.557a6.523,6.523,0,0,1,3.3.826c6.45,4.032,7.214,20.836,7.161,29.532C1976.945,1093.736,1976.817,1095.828,1976.817,1095.828Z" transform="translate(-143.021 -162.103)"/>
      <path class="cls-24" d="M2357.573,1610.046l-6.058,25.019s-175.368-90.578-198.048-107.971c-9.112-6.99-21.15-44.943-32.3-87.876,14.966,3.074,47.291,4.708,88.092-22.477-2.87,34.821-4.936,62.971,8.124,70.267,25.473,14.217,100.221,79.707,123.878,124.763Z" transform="translate(-143.021 -162.103)"/>
      <path class="cls-20" d="M2392.24,1619.757a1.527,1.527,0,0,1-.157-.036c-.785-.2-4.393-1.386-6.782-7.123-1.576-3.778-2.05-6.879-3.494-10.616l-5.922-10.219c-6.194-8.156-8.365-6.245-8.365-6.245s-1.62,2.076-4.012,4.814c-3.951,4.518-10.01,10.82-14.3,12.438a12.463,12.463,0,0,0-6.125,4.8,11.809,11.809,0,0,0-1.827,4.2s12.717,2.216,11.608,8.482c-2.159,12.128-1.649,14.334-1.428,14.731l.076.082s21.687,11.352,28.622,13.581c12.341,3.952,18.786,12.34,22.787,16.173a7.138,7.138,0,0,0,6.07,1.912c3.253-.513,7.475-1.558,8.4-3.553Z" transform="translate(-143.021 -162.103)"/>
      <path class="cls-20" d="M2119.576,1536.931c16.917,22.182,0,198.207,0,198.207l-19.255,19.833s-33.47-173.789-42.548-201.021c-4.13-12.379-10.143-65.252-15.454-119.225,16.044,7.159,55.189,22.749,87.355,20.627-4.108,17.065-7.931,32.892-10.336,46.133C2116.206,1518.721,2115.469,1531.542,2119.576,1536.931Z" transform="translate(-143.021 -162.103)"/>
      <path class="cls-20" d="M2138.927,1763.793l-10.388,5.623c-3.776,1.336-6.891,1.72-10.712,3.186-5.8,2.222-9.888,6.593-10.082,7.379-2.931,11.915-7.092,11.158-7.092,11.158l-41.731.391c-1.968-.983,1.367-9.407,2.966-10.981,3.945-3.888,15.753-1.932,20.06-14.153,2.429-6.868,14.4-28.216,14.4-28.216l.084-.075c.4-.209,2.624-.654,14.684,1.854,6.232,1.289,8.815-11.357,8.815-11.357a11.782,11.782,0,0,1,4.147,1.948,12.452,12.452,0,0,1,4.614,6.261c1.494,4.333,7.619,10.571,12.019,14.651,2.669,2.472,4.7,4.149,4.7,4.149S2147.258,1757.838,2138.927,1763.793Z" transform="translate(-143.021 -162.103)"/>
    </g>
    <g>
      <rect class="cls-26" x="1399.16" y="1120.312" width="177.23" height="510.485"/>
      <rect class="cls-9" x="930.943" y="1120.312" width="468.217" height="510.485"/>
      <rect class="cls-3" x="1290.208" y="1315.892" width="35.729" height="468.217" transform="translate(2715.052 79.825) rotate(90)"/>
      <rect class="cls-27" x="1612.931" y="1461.386" width="35.729" height="177.23" transform="translate(3037.775 -242.899) rotate(90)"/>
      <path class="cls-26" d="M1415.518,1274.564s143.546-65.154,243.6-40.4l-19.977,13.367,10.069,23.6s-111.318-29.016-236.574,7.275Z" transform="translate(-143.021 -162.103)"/>
      <g>
        <path class="cls-28" d="M1390.929,1272.06s-18.663-2.255-46.482-6.082c-73.848-10.158-212.173-31.41-237-51.076-39.013-30.892,53.432-162.1,93.447-180.31C1240.908,1016.4,1390.929,1272.06,1390.929,1272.06Z" transform="translate(-143.021 -162.103)"/>
        <path class="cls-28" d="M1683.588,1108.677c6.668,32.505-295.407,172.929-295.407,172.929s5.5-14.857,14.436-38.129l.026-.041c32.658-84.985,111.334-282.206,137.188-279.477a31.365,31.365,0,0,1,9.028,2.685C1588.567,984.116,1677.447,1078.741,1683.588,1108.677Z" transform="translate(-143.021 -162.103)"/>
        <path class="cls-26" d="M1546.311,995.547c-18.447,32.046-141.739,244.577-143.668,247.889,32.658-84.985,111.334-282.206,137.188-279.477a16.435,16.435,0,0,1,9.028,2.685C1553.571,970.078,1556.5,977.852,1546.311,995.547Z" transform="translate(-143.021 -162.103)"/>
        <path class="cls-26" d="M1344.5,1265.978h-.05c-73.848-10.158-212.173-31.41-237-51.076-11.211-31.577,17.878-34.15,39.046-36.373S1344.5,1265.978,1344.5,1265.978Z" transform="translate(-143.021 -162.103)"/>
        <path class="cls-26" d="M1334.59,1282.119s16.933-38.523,50.262-40.656c34.809-2.228,54.58,40.656,54.58,40.656Z" transform="translate(-143.021 -162.103)"/>
      </g>
      <rect class="cls-27" x="916.748" y="1120.312" width="489.923" height="70.212"/>
      <rect class="cls-29" x="1406.671" y="1120.312" width="184.658" height="70.212"/>
      <path class="cls-26" d="M1351.691,1276.534s-95.956-30.4-160.707-10.3c-74.634,23.164-70.212,115.258-70.212,115.258l17.553-7.217,23.7,11.118s4-97.517,64.849-111.169C1279.485,1262.419,1351.691,1276.534,1351.691,1276.534Z" transform="translate(-143.021 -162.103)"/>
      <rect class="cls-3" x="1123.714" y="1120.312" width="35.729" height="514.888"/>
    </g>
    <g>
      <path class="cls-20" d="M506.968,1072.8s131.974,96.716,164.258,94.384,146.61-72.875,146.61-72.875l-24.186-28.755s-103.543,38.361-122.5,27.785-93.006-100.348-124.075-95.556S485.308,1038.03,506.968,1072.8Z" transform="translate(-143.021 -162.103)"/>
      <g>
        <path class="cls-20" d="M429.138,1799.5H389.686c-4.967-2.7-9.391-8.871-10.79-18.077-1.927-12.711-16.172-19.641-19.255-30.039s12.711-25.021,12.711-25.021l2.64-3.4,2.748-3.533,26.184,6.166s.65,6.237,1.042,14.18a181.453,181.453,0,0,1,.115,18.164c-.771,13.859,3.875,28.789,16.192,31.487C430.38,1791.417,429.973,1796.819,429.138,1799.5Z" transform="translate(-143.021 -162.103)"/>
        <path class="cls-20" d="M658.1,1799.5H567.875c-4.338-5.3-2.74-24.836-2.084-31.216.136-1.285.229-2.034.229-2.034s30.809-24.644,35.041-5.774c.129.592.286,1.17.457,1.742,5.331,17.648,29.246,25.671,43.056,27.9C653.552,1791.581,656.87,1796.248,658.1,1799.5Z" transform="translate(-143.021 -162.103)"/>
        <path class="cls-7" d="M640.907,1295.892s-4.678,58.368-10.177,128.529c-7.473,95.307-16.46,212.378-17.349,234.556-1.536,38.511-7.7,100.113-7.7,100.113s-14.623,14.635-43.894,8.467c0,0-26.082-87.939-33.533-180.983-.115-1.524-.23-3.06-.346-4.6-6.931-94.719-17.708-294.171-17.708-294.171Z" transform="translate(-143.021 -162.103)"/>
        <path class="cls-14" d="M640.907,1295.892s-4.678,58.368-10.177,128.529L528.249,1586.574c-.115-1.524-.23-3.06-.346-4.6-6.931-94.719-17.708-294.171-17.708-294.171Z" transform="translate(-143.021 -162.103)"/>
        <path class="cls-7" d="M619.543,1302.823s-84.323,211.385-139.768,310.724S407,1740.608,407,1740.608s-31.765-12.706-34.653-21.369c0,0,21.2-191.779,58.333-238.529,20.981-26.417,45.627-105.692,46.782-133.415s7.508-82.59,7.508-82.59Z" transform="translate(-143.021 -162.103)"/>
      </g>
      <path class="cls-21" d="M563.96,1001.847c-31.469,14.266-91.432-6.772-91.432-6.772s27.434-26.273,20.182-73.151l27.752,17.336,18.85,11.774a207.475,207.475,0,0,1,.76,22.7c-.043,3.822-.154,8.091-.381,12.769A78.849,78.849,0,0,1,563.96,1001.847Z" transform="translate(-143.021 -162.103)"/>
      <path class="cls-22" d="M539.312,951.034a207.475,207.475,0,0,1,.76,22.7c-19.432-.972-44.738-29.141-44.738-29.141,9.356-3.967,17.784-5.494,25.128-5.336Z" transform="translate(-143.021 -162.103)"/>
      <path class="cls-21" d="M549.224,949.054s-52.955,15.489-62.093-17.637S465,877.98,498.427,866.69s43.508-.469,49.247,9.846S562.763,944.17,549.224,949.054Z" transform="translate(-143.021 -162.103)"/>
      <path class="cls-24" d="M644.2,1275.075c1.651,15.267,2.419,24.777,2.052,25.152a5.3,5.3,0,0,1-3.284,1.728c-12.3,1.317-47.3,12.449-77.991,13-25.854.627-49.383-4.217-74.987-12.184-3.394-1.055-11.3-4.124-11.562-7.75-.371-3.954-.666-9.735-1.047-17-1.3-25.278-3.5-68.756-12.423-118.159-1.639-9.193-3.015-18.358-4.14-27.4-8.38-67.389-2.155-128.3,22.285-151.621,2.1-1.917,17.016,3.27,30.727,8.094,12.677,4.465,24.709,3.675,35.735.023l12.506,8.626c15.308,11.12,32.472,26.676,42.2,52.259,8.286,21.769,16.43,61.841,23.286,103.555,3.105,18.913,6.077,38,8.432,56.162l.079.651c.379,1.782.618,3.76.835,5.562q.654,4.84,1.265,9.521C640.71,1244.693,642.772,1262,644.2,1275.075Z" transform="translate(-143.021 -162.103)"/>
      <path class="cls-24" d="M486.7,928.175s5.433-1.595,3.618-9.125-3.006-17.515,3.428-16.4,7.342,6.046,9.545,2.835.773-15.448,19.148-18.527,26.659,2.448,34.8-2.365,7.023-17.874,7.023-17.874-1.884,4.939-5.4,6.861c0,0,11.972-21.335-6.245-32.78s-34.079-.6-43.615,1.136c-21.007,3.832-34.524,6.749-39.762,21.487S471.5,916.427,486.7,928.175Z" transform="translate(-143.021 -162.103)"/>
      <path class="cls-20" d="M644.2,1275.075c-2.6.479-47.757,8.587-78.46-11.636-31.612-20.823-68.644-144.273-68.644-144.273s71,78.964,72.38,82.077c1.153,2.622,52.355,18.9,68.688,24.046C640.71,1244.693,642.772,1262,644.2,1275.075Z" transform="translate(-143.021 -162.103)"/>
      <g>
        <g>
          <rect class="cls-14" x="663.426" y="881.364" width="351.26" height="351.26" transform="translate(-157.974 -150.06) rotate(-0.815)"/>
          <rect class="cls-7" x="588.473" y="882.431" width="351.26" height="351.26" transform="translate(-157.996 -151.126) rotate(-0.815)"/>
        </g>
        <path class="cls-23" d="M632.022,992.792c-.471-33.151,22.253-60.27,56.411-60.756,33.822-.481,56.969,25.649,57.445,59.136.468,32.818-22.252,60.271-56.409,60.758C655.646,1052.41,632.5,1026.279,632.022,992.792Zm193.746-60.031,39.85-.568L697.833,1169.039l-39.85.567ZM710.717,991.673c-.224-15.739-9.126-29.346-22.521-29.155-14.064.2-21.241,13.7-21.012,29.774.224,15.739,9.126,29.345,22.521,29.153C703.769,1021.246,710.941,1007.412,710.717,991.673Zm67.006,118.954c-.472-33.151,22.254-60.271,56.41-60.756,33.822-.481,56.97,25.65,57.447,59.137.467,32.816-22.254,60.27-56.411,60.756C801.348,1170.245,778.2,1144.116,777.723,1110.627Zm78.7-1.119c-.224-15.739-9.126-29.344-22.521-29.154-14.065.2-21.241,13.7-21.013,29.773.224,15.739,9.127,29.346,22.522,29.155C849.47,1139.082,856.642,1125.247,856.418,1109.508Z" transform="translate(-143.021 -162.103)"/>
      </g>
      <path class="cls-21" d="M762.9,1247.286c-11.855-.222-27.064-5.319-31.938-7.744a55.3,55.3,0,0,1-12.438-8.071l1.25-7.806,1.5-9.323s.915-.146,2.437-.3,3.646-.323,6.061-.364a7.906,7.906,0,0,0,7.13-1.7c3.22-2.882,9.159-4.835,13.656-3.758s14.149.073,14.456,1.645c.757,3.8-13.317,3.109-14.962,5.492a2.82,2.82,0,0,0,.143,3.875c.021.014.035.032.056.046,8.241,8.309,36.6,11.326,35.467,17.924C785.289,1239.664,767.915,1247.381,762.9,1247.286Z" transform="translate(-143.021 -162.103)"/>
      <path class="cls-24" d="M475.468,1071.87s64.961,150.171,93.992,164.483,161.5,3.189,161.5,3.189l.874-25.632s-114.093-22.6-125.1-41.307S577.228,1039,548,1027.427,474.361,1030.919,475.468,1071.87Z" transform="translate(-143.021 -162.103)"/>
    </g>
    <g>
      <path class="cls-12" d="M2772.861,1473.88q-2.155,1.315-4.384,2.545c-.5.278-1.006.552-1.51.814-1.151.614-2.3,1.2-3.46,1.779a116.7,116.7,0,0,1-107.7-206.985q2.244-1.236,4.519-2.362c1.471-.733,2.957-1.434,4.447-2.1a116.538,116.538,0,0,1,35.027-9.417,116.713,116.713,0,0,1,73.061,215.721Z" transform="translate(-143.021 -162.103)"/>
      <path class="cls-11" d="M2712.9,1481.776a106.376,106.376,0,1,1,51.236-13.229A106.416,106.416,0,0,1,2712.9,1481.776Zm-.184-206.336a100,100,0,1,0,87.647,51.732A100.074,100.074,0,0,0,2712.716,1275.44Z" transform="translate(-143.021 -162.103)"/>
      <polygon class="cls-11" points="2569.787 1135.049 2593.234 1182.558 2645.664 1190.176 2607.725 1227.158 2616.682 1279.375 2569.787 1254.721 2522.893 1279.375 2531.849 1227.158 2493.91 1190.176 2546.34 1182.558 2569.787 1135.049"/>
    </g>
    <g>
      <path class="cls-12" d="M2842.791,1189.9q-1.218.743-2.475,1.436-.426.236-.851.46c-.65.346-1.3.679-1.953,1a65.861,65.861,0,0,1-60.785-116.819c.843-.466,1.7-.911,2.55-1.333q1.245-.622,2.51-1.183a65.745,65.745,0,0,1,19.769-5.314,65.871,65.871,0,0,1,41.235,121.75Z" transform="translate(-143.021 -162.103)"/>
      <path class="cls-11" d="M2808.95,1194.353a60.042,60.042,0,1,1,28.916-7.467A60.062,60.062,0,0,1,2808.95,1194.353Zm-.105-116.455a56.442,56.442,0,1,0,49.467,29.2A56.476,56.476,0,0,0,2808.845,1077.9Z" transform="translate(-143.021 -162.103)"/>
      <polygon class="cls-11" points="2665.876 928.049 2679.109 954.863 2708.7 959.163 2687.288 980.035 2692.343 1009.505 2665.876 995.591 2639.409 1009.505 2644.464 980.035 2623.052 959.163 2652.643 954.863 2665.876 928.049"/>
    </g>
    <g>
      <path class="cls-4" d="M1713.154,336.5q-.722.885-1.486,1.745c-.173.194-.347.386-.521.574-.4.435-.8.859-1.208,1.279a52.764,52.764,0,0,1-77.063-72.05q.771-.864,1.571-1.687.777-.8,1.581-1.562a52.644,52.644,0,0,1,13.518-9.285,52.771,52.771,0,0,1,63.608,80.986Z" transform="translate(-143.021 -162.103)"/>
      <path class="cls-3" d="M1672.676,351.633a48.157,48.157,0,1,1,2.831-.082Q1674.087,351.634,1672.676,351.633Zm.121-93.279q-1.329,0-2.662.076a45.161,45.161,0,1,0,2.662-.076Z" transform="translate(-143.021 -162.103)"/>
      <polygon class="cls-3" points="1517.938 108.077 1535.083 124.807 1558.584 120.166 1547.972 141.643 1559.647 162.56 1535.943 159.103 1519.658 176.67 1515.62 153.058 1493.88 142.999 1515.088 131.862 1517.938 108.077"/>
    </g>
    <g>
      <path class="cls-4" d="M1558.877,1756.963q-1.288,1.581-2.656,3.116c-.309.347-.619.691-.931,1.026q-1.066,1.164-2.157,2.284a94.246,94.246,0,0,1-137.649-128.695c.917-1.029,1.855-2.037,2.807-3.013q1.384-1.431,2.824-2.79a94.038,94.038,0,0,1,24.145-16.585,94.26,94.26,0,0,1,113.617,144.657Z" transform="translate(-143.021 -162.103)"/>
      <path class="cls-3" d="M1486.573,1784a86,86,0,1,1,5.058-.146Q1489.095,1784,1486.573,1784Zm.217-166.615c-1.582,0-3.163.045-4.755.137a80.61,80.61,0,1,0,4.755-.137Z" transform="translate(-143.021 -162.103)"/>
      <polygon class="cls-3" points="1322.625 1476.403 1353.25 1506.285 1395.227 1497.997 1376.272 1536.357 1397.126 1573.718 1354.786 1567.545 1325.697 1598.923 1318.484 1556.749 1279.653 1538.78 1317.535 1518.887 1322.625 1476.403"/>
    </g>
    <path class="cls-30" d="M3.125,1629.427h2752.1a3.125,3.125,0,0,1,3.125,3.125v1.066a3.125,3.125,0,0,1-3.125,3.125H3.126A3.126,3.126,0,0,1,0,1633.618v-1.065a3.125,3.125,0,0,1,3.125-3.125Z"/>
    <g>
      <path class="cls-5" d="M1854.164,1149.372s-13.049,8.9-27.559,7.435c-10.771-1.086-21.382-11.059-21.794-11.72l-8.585,14.926s19.633,11.9,36.459,8.643c5.157-1,13.519-6.121,17.3-9.959A14.591,14.591,0,0,0,1854.164,1149.372Z" transform="translate(-143.021 -162.103)"/>
      <path class="cls-6" d="M1853.81,1118.282l21.569-8.936s-2.958,44.835-40.006,58.533C1835.373,1167.879,1858.777,1137.19,1853.81,1118.282Z" transform="translate(-143.021 -162.103)"/>
    </g>
    <path class="cls-7" d="M2005.154,1654.2s9.416,10.67,18.682,10.461c0,0,1.237,11.667-2.111,14.772,0,0-15.86-2.9-19.68-8.7C2002.045,1670.735,1998.842,1656.82,2005.154,1654.2Z" transform="translate(-143.021 -162.103)"/>
    <g>
      <path class="cls-4" d="M1857.37,1507.514s-8.529-10.353-8.4-22.739c.091-9.193,7.711-18.935,8.238-19.333l-13.285-6.115s-8.56,17.521-4.509,31.5c1.241,4.284,6.216,10.963,9.753,13.862A12.4,12.4,0,0,0,1857.37,1507.514Z" transform="translate(-143.021 -162.103)"/>
      <path class="cls-4" d="M1883.639,1504.825l9.215,17.556s-38.148.943-52.581-29.339C1840.273,1493.042,1868.028,1510.479,1883.639,1504.825Z" transform="translate(-143.021 -162.103)"/>
    </g>
  </g>
</svg>
